<svg xmlns="http://www.w3.org/2000/svg" width="16" height="10.235" viewBox="0 0 16 10.235">
    <g data-name="view (1)" style="opacity:.75">
        <g data-name="Group 28451">
            <g data-name="Group 28450">
                <path data-name="Path 24991" d="M15.9 4.805C15.757 4.605 12.351 0 8 0S.244 4.609.1 4.805a.531.531 0 0 0 0 .625c.143.2 3.549 4.805 7.9 4.805s7.755-4.609 7.9-4.8a.531.531 0 0 0 0-.63zM8 9.176c-3.2 0-5.979-3.059-6.8-4.059.82-1 3.59-4.058 6.8-4.058s5.979 3.058 6.8 4.059c-.82 1.001-3.589 4.058-6.8 4.058z"/>
            </g>
        </g>
        <g data-name="Group 28453">
            <g data-name="Group 28452">
                <path data-name="Path 24992" d="M8 1.941a3.176 3.176 0 1 0 3.165 3.176A3.174 3.174 0 0 0 8 1.941zm0 5.294a2.118 2.118 0 1 1 2.113-2.119A2.116 2.116 0 0 1 8 7.235z"/>
            </g>
        </g>
    </g>
</svg>
