<svg xmlns="http://www.w3.org/2000/svg" width="46" height="46" viewBox="0 0 46 46">
    <path data-name="Facebook Logo" d="M3727.462 2322h-40.926a2.535 2.535 0 0 0-2.537 2.537v40.925a2.535 2.535 0 0 0 2.537 2.538h22.035v-17.835h-6.02v-6.919h6.021v-5.123c0-5.942 3.626-9.16 8.926-9.16a50.752 50.752 0 0 1 5.358.257v6.212h-3.676c-2.883 0-3.422 1.37-3.422 3.38v4.435h6.855l-.895 6.919h-5.96V2368h11.7a2.537 2.537 0 0 0 2.537-2.538v-40.925a2.536 2.536 0 0 0-2.533-2.537z" transform="translate(-3683.999 -2322)" style="fill:#fff"/>
</svg>
