<svg xmlns="http://www.w3.org/2000/svg" width="14.313" height="14.31" viewBox="0 0 14.313 14.31">
    <path data-name="Path 29" d="M14.313 2.149v10.014c-.009.037-.023.071-.03.107a2.479 2.479 0 0 1-1.822 1.966c-.1.03-.2.05-.3.073H9.4a1.121 1.121 0 0 1-.009-.123V8.905h2.246c.1 0 .137-.023.137-.13V6.649c0-.041 0-.08-.007-.137H9.4c0-.368-.016-.725 0-1.077a.508.508 0 0 1 .567-.51h1.646c.048 0 .1 0 .146-.007V2.54H9.893a2.385 2.385 0 0 0-1.413.446 3.015 3.015 0 0 0-1.271 2.083 11.349 11.349 0 0 0-.05 1.31v.142H5.416a.785.785 0 0 0-.009.089v2.183c0 .1.041.11.123.11h1.632v5.4H2.154c-.032-.009-.064-.021-.1-.027A2.479 2.479 0 0 1 .08 12.454c-.03-.1-.05-.2-.073-.3Q0 7.16 0 2.149L.041 2A2.47 2.47 0 0 1 1.82.082c.107-.034.219-.055.329-.082h10.014a.593.593 0 0 0 .085.025 2.477 2.477 0 0 1 1.991 1.838c.03.094.051.19.074.286z" style="fill:#808082"/>
</svg>
