<svg xmlns="http://www.w3.org/2000/svg" width="16.852" height="17" viewBox="0 0 16.852 17">
    <path data-name="Path 4" d="M16.261 10.274a6.618 6.618 0 0 0 .148-1.7A7.949 7.949 0 0 0 8.426.591a10.1 10.1 0 0 0-1.4.148A4.721 4.721 0 0 0 4.583 0 4.622 4.622 0 0 0 0 4.657a4.4 4.4 0 0 0 .665 2.365 11.071 11.071 0 0 0-.148 1.626A7.949 7.949 0 0 0 8.5 16.63a10.017 10.017 0 0 0 1.478-.148A4.464 4.464 0 0 0 12.2 17a4.637 4.637 0 0 0 4.657-4.657 6.657 6.657 0 0 0-.596-2.069zm-3.7 2.143a3.571 3.571 0 0 1-1.626 1.257 6.371 6.371 0 0 1-2.513.443 6.43 6.43 0 0 1-2.883-.591 4.05 4.05 0 0 1-1.33-1.183 2.4 2.4 0 0 1-.509-1.478 1.026 1.026 0 0 1 .37-.739 1.112 1.112 0 0 1 .813-.3 1.249 1.249 0 0 1 .739.222 1.5 1.5 0 0 1 .443.665 8.062 8.062 0 0 0 .443.813 1.61 1.61 0 0 0 .665.517 2.592 2.592 0 0 0 1.183.222 2.811 2.811 0 0 0 1.626-.443 1.274 1.274 0 0 0 .591-1.035.857.857 0 0 0-.3-.739 1.686 1.686 0 0 0-.887-.443 14.24 14.24 0 0 0-1.478-.37 10.083 10.083 0 0 1-2.07-.591 3.328 3.328 0 0 1-1.4-1.035 2.733 2.733 0 0 1-.443-1.552 2.519 2.519 0 0 1 .517-1.626 4.191 4.191 0 0 1 1.549-1.105 7.564 7.564 0 0 1 2.365-.37 6.655 6.655 0 0 1 1.848.222 3.752 3.752 0 0 1 1.33.665 4.432 4.432 0 0 1 .813.887 1.968 1.968 0 0 1 .222.887.949.949 0 0 1-.3.739 1.155 1.155 0 0 1-.887.443.9.9 0 0 1-.665-.222 2.579 2.579 0 0 1-.443-.665 2.958 2.958 0 0 0-.739-.887 2.222 2.222 0 0 0-1.33-.3 2.629 2.629 0 0 0-1.4.37c-.37.222-.517.443-.517.739a.792.792 0 0 0 .148.443 1.326 1.326 0 0 0 .517.37 2.349 2.349 0 0 0 .665.222c.222.074.591.148 1.109.3q1 .222 1.774.443a8.01 8.01 0 0 1 1.4.591 2.768 2.768 0 0 1 .887.961 2.814 2.814 0 0 1 .3 1.4 3.065 3.065 0 0 1-.593 1.853z" style="fill:#808082"/>
</svg>
