<svg xmlns="http://www.w3.org/2000/svg" width="94.767" height="112" viewBox="0 0 94.767 112">
    <g data-name="Group 228">
        <text data-name="5" transform="translate(0 84)" style="fill:#abf8f2;font-size:80px;font-family:Poppins-Bold,Poppins;font-weight:700;opacity:.381"><tspan x="0" y="0">5</tspan></text>
        <g data-name="Group 128">
            <path data-name="Path 95" d="M3811.514 1299.5h5.752v60.394H3765.5V1299.5h5.752" transform="translate(-3723.5 -1275.748)" style="stroke:#4a4a4a;stroke-linecap:round;stroke-linejoin:round;stroke-width:2px;fill:none"/>
            <path data-name="Path 96" d="M3789.632 1303.252a5.752 5.752 0 0 0-11.5 0h-8.632V1309h28.759v-5.752z" transform="translate(-3715.996 -1279.5)" style="fill:#4a4a4a;stroke:#4a4a4a;stroke-linecap:round;stroke-linejoin:round;stroke-width:2px"/>
            <path data-name="Path 97" d="M3807.762 1301.5v48.891H3767.5V1301.5" transform="translate(-3719.748 -1271.996)" style="stroke:#4a4a4a;stroke-linecap:round;stroke-linejoin:round;stroke-width:2px;fill:none"/>
            <path data-name="Line 53" transform="translate(62.131 41.007)" style="stroke:#4a4a4a;stroke-linecap:round;stroke-linejoin:round;stroke-width:2px;fill:none" d="M0 0h17.256"/>
            <path data-name="Line 54" transform="translate(62.131 49.635)" style="stroke:#4a4a4a;stroke-linecap:round;stroke-linejoin:round;stroke-width:2px;fill:none" d="M0 0h17.256"/>
            <path data-name="Line 55" transform="translate(62.131 58.263)" style="stroke:#4a4a4a;stroke-linecap:round;stroke-linejoin:round;stroke-width:2px;fill:none" d="M0 0h17.256"/>
            <path data-name="Line 56" transform="translate(62.131 66.891)" style="stroke:#4a4a4a;stroke-linecap:round;stroke-linejoin:round;stroke-width:2px;fill:none" d="M0 0h17.256"/>
            <path data-name="Line 57" transform="translate(54.942 41.007)" style="stroke:#4a4a4a;stroke-linecap:round;stroke-linejoin:round;stroke-width:2px;fill:none" d="M0 0h1.438"/>
            <path data-name="Line 58" transform="translate(54.942 49.635)" style="stroke:#4a4a4a;stroke-linecap:round;stroke-linejoin:round;stroke-width:2px;fill:none" d="M0 0h1.438"/>
            <path data-name="Line 59" transform="translate(54.942 58.263)" style="stroke:#4a4a4a;stroke-linecap:round;stroke-linejoin:round;stroke-width:2px;fill:none" d="M0 0h1.438"/>
            <path data-name="Line 60" transform="translate(54.942 66.891)" style="stroke:#4a4a4a;stroke-linecap:round;stroke-linejoin:round;stroke-width:2px;fill:none" d="M0 0h1.438"/>
        </g>
    </g>
</svg>
