<svg xmlns="http://www.w3.org/2000/svg" width="101" height="112" viewBox="0 0 101 112">
    <g data-name="Group 227">
        <text data-name="4" transform="translate(0 84)" style="fill:#abf8f2;font-size:80px;font-family:Poppins-Bold,Poppins;font-weight:700;opacity:.381"><tspan x="0" y="0">4</tspan></text>
        <g data-name="Group 80">
            <path data-name="Rectangle 98" transform="translate(41.565 71.87)" style="stroke-linecap:round;stroke-width:2px;fill:none;stroke:#4a4a4a;stroke-linejoin:round" d="M0 0h52.87v5.565H0z"/>
            <path data-name="Rectangle 99" transform="translate(44.348 41.261)" style="stroke-linecap:round;stroke-width:2px;fill:none;stroke:#4a4a4a;stroke-linejoin:round" d="M0 0h47.304v30.609H0z"/>
            <path data-name="Line 32" transform="translate(36 83)" style="stroke-linecap:round;stroke-width:2px;fill:none;stroke:#4a4a4a;stroke-linejoin:round" d="M64 0H0"/>
            <path data-name="Line 33" transform="translate(36 77.435)" style="stroke-linecap:round;stroke-width:2px;fill:none;stroke:#4a4a4a;stroke-linejoin:round" d="M64 0H0"/>
            <path data-name="Line 34" transform="translate(49.913 41.261)" style="stroke-linecap:round;stroke-width:2px;fill:none;stroke:#4a4a4a;stroke-linejoin:round" d="M0 0v30.609"/>
            <path data-name="Line 35" transform="translate(63.826 41.261)" style="stroke-linecap:round;stroke-width:2px;fill:none;stroke:#4a4a4a;stroke-linejoin:round" d="M0 0v30.609"/>
            <path data-name="Line 40" transform="translate(61.214 41.261)" style="stroke-width:5px;fill:none;stroke:#4a4a4a;stroke-linejoin:round" d="M0 0v30.609"/>
            <path data-name="Line 41" transform="translate(46.846 41.261)" style="stroke-width:5px;fill:none;stroke:#4a4a4a;stroke-linejoin:round" d="M0 0v30.609"/>
            <path data-name="Line 42" transform="translate(75.581 41.261)" style="stroke-width:5px;fill:none;stroke:#4a4a4a;stroke-linejoin:round" d="M0 0v30.609"/>
            <path data-name="Line 43" transform="translate(88.643 41.261)" style="stroke-width:5px;fill:none;stroke:#4a4a4a;stroke-linejoin:round" d="M0 0v30.609"/>
            <path data-name="Line 36" transform="translate(58.261 41.261)" style="stroke-linecap:round;stroke-width:2px;fill:none;stroke:#4a4a4a;stroke-linejoin:round" d="M0 0v30.609"/>
            <path data-name="Line 37" transform="translate(72.174 41.261)" style="stroke-linecap:round;stroke-width:2px;fill:none;stroke:#4a4a4a;stroke-linejoin:round" d="M0 0v30.609"/>
            <path data-name="Line 38" transform="translate(77.739 41.261)" style="stroke-linecap:round;stroke-width:2px;fill:none;stroke:#4a4a4a;stroke-linejoin:round" d="M0 0v30.609"/>
            <path data-name="Line 39" transform="translate(86.087 41.261)" style="stroke-linecap:round;stroke-width:2px;fill:none;stroke:#4a4a4a;stroke-linejoin:round" d="M0 0v30.609"/>
            <path data-name="Rectangle 100" transform="translate(38.783 35.696)" style="stroke-linecap:round;stroke-width:2px;fill:none;stroke:#4a4a4a;stroke-linejoin:round" d="M0 0h58.435v5.565H0z"/>
            <path data-name="Path 57" d="M2840.936 1074.2H2782.5l29.217-16.7z" transform="translate(-2743.718 -1038.5)" style="stroke-linecap:round;stroke-width:2px;fill:none;stroke:#4a4a4a;stroke-linejoin:round"/>
        </g>
    </g>
</svg>
