<svg xmlns="http://www.w3.org/2000/svg" width="431.5" height="378.322" viewBox="0 0 431.5 378.322">
    <g data-name="Group 65" transform="translate(-2277.856 -67.113)" style="opacity:.474">
        <circle data-name="Ellipse 22" cx="3.195" cy="3.195" r="3.195" transform="translate(2277.856 67.113)" style="fill:#d5d5d5"/>
        <circle data-name="Ellipse 23" cx="3.195" cy="3.195" r="3.195" transform="translate(2348.708 67.113)" style="fill:#d5d5d5"/>
        <circle data-name="Ellipse 24" cx="3.195" cy="3.195" r="3.195" transform="translate(2419.559 67.113)" style="fill:#d5d5d5"/>
        <circle data-name="Ellipse 25" cx="3.195" cy="3.195" r="3.195" transform="translate(2490.411 67.113)" style="fill:#d5d5d5"/>
        <circle data-name="Ellipse 26" cx="3.195" cy="3.195" r="3.195" transform="translate(2561.262 67.113)" style="fill:#d5d5d5"/>
        <circle data-name="Ellipse 27" cx="3.195" cy="3.195" r="3.195" transform="translate(2632.114 67.113)" style="fill:#d5d5d5"/>
        <circle data-name="Ellipse 28" cx="3.195" cy="3.195" r="3.195" transform="translate(2702.966 67.113)" style="fill:#d5d5d5"/>
        <circle data-name="Ellipse 29" cx="3.195" cy="3.195" r="3.195" transform="translate(2277.856 120.246)" style="fill:#d5d5d5"/>
        <circle data-name="Ellipse 30" cx="3.195" cy="3.195" r="3.195" transform="translate(2348.708 120.246)" style="fill:#d5d5d5"/>
        <circle data-name="Ellipse 31" cx="3.195" cy="3.195" r="3.195" transform="translate(2419.559 120.246)" style="fill:#d5d5d5"/>
        <circle data-name="Ellipse 32" cx="3.195" cy="3.195" r="3.195" transform="translate(2490.411 120.246)" style="fill:#d5d5d5"/>
        <circle data-name="Ellipse 33" cx="3.195" cy="3.195" r="3.195" transform="translate(2561.262 120.246)" style="fill:#d5d5d5"/>
        <circle data-name="Ellipse 34" cx="3.195" cy="3.195" r="3.195" transform="translate(2632.114 120.246)" style="fill:#d5d5d5"/>
        <circle data-name="Ellipse 35" cx="3.195" cy="3.195" r="3.195" transform="translate(2702.966 120.246)" style="fill:#d5d5d5"/>
        <circle data-name="Ellipse 36" cx="3.195" cy="3.195" r="3.195" transform="translate(2277.856 173.379)" style="fill:#d5d5d5"/>
        <circle data-name="Ellipse 37" cx="3.195" cy="3.195" r="3.195" transform="translate(2348.708 173.379)" style="fill:#d5d5d5"/>
        <circle data-name="Ellipse 38" cx="3.195" cy="3.195" r="3.195" transform="translate(2419.559 173.379)" style="fill:#d5d5d5"/>
        <circle data-name="Ellipse 39" cx="3.195" cy="3.195" r="3.195" transform="translate(2490.411 173.379)" style="fill:#d5d5d5"/>
        <circle data-name="Ellipse 40" cx="3.195" cy="3.195" r="3.195" transform="translate(2561.262 173.379)" style="fill:#d5d5d5"/>
        <circle data-name="Ellipse 41" cx="3.195" cy="3.195" r="3.195" transform="translate(2632.114 173.379)" style="fill:#d5d5d5"/>
        <circle data-name="Ellipse 42" cx="3.195" cy="3.195" r="3.195" transform="translate(2702.966 173.379)" style="fill:#d5d5d5"/>
        <circle data-name="Ellipse 43" cx="3.195" cy="3.195" r="3.195" transform="translate(2277.856 226.512)" style="fill:#d5d5d5"/>
        <circle data-name="Ellipse 44" cx="3.195" cy="3.195" r="3.195" transform="translate(2348.708 226.512)" style="fill:#d5d5d5"/>
        <circle data-name="Ellipse 45" cx="3.195" cy="3.195" r="3.195" transform="translate(2419.559 226.512)" style="fill:#d5d5d5"/>
        <circle data-name="Ellipse 46" cx="3.195" cy="3.195" r="3.195" transform="translate(2490.411 226.512)" style="fill:#d5d5d5"/>
        <circle data-name="Ellipse 47" cx="3.195" cy="3.195" r="3.195" transform="translate(2561.262 226.512)" style="fill:#d5d5d5"/>
        <circle data-name="Ellipse 48" cx="3.195" cy="3.195" r="3.195" transform="translate(2632.114 226.512)" style="fill:#d5d5d5"/>
        <circle data-name="Ellipse 49" cx="3.195" cy="3.195" r="3.195" transform="translate(2702.966 226.512)" style="fill:#d5d5d5"/>
        <circle data-name="Ellipse 50" cx="3.195" cy="3.195" r="3.195" transform="translate(2277.856 279.645)" style="fill:#d5d5d5"/>
        <circle data-name="Ellipse 51" cx="3.195" cy="3.195" r="3.195" transform="translate(2348.708 279.645)" style="fill:#d5d5d5"/>
        <circle data-name="Ellipse 52" cx="3.195" cy="3.195" r="3.195" transform="translate(2419.559 279.645)" style="fill:#d5d5d5"/>
        <circle data-name="Ellipse 53" cx="3.195" cy="3.195" r="3.195" transform="translate(2490.411 279.645)" style="fill:#d5d5d5"/>
        <circle data-name="Ellipse 54" cx="3.195" cy="3.195" r="3.195" transform="translate(2561.262 279.645)" style="fill:#d5d5d5"/>
        <circle data-name="Ellipse 55" cx="3.195" cy="3.195" r="3.195" transform="translate(2632.114 279.645)" style="fill:#d5d5d5"/>
        <circle data-name="Ellipse 56" cx="3.195" cy="3.195" r="3.195" transform="translate(2702.966 279.645)" style="fill:#d5d5d5"/>
        <circle data-name="Ellipse 57" cx="3.195" cy="3.195" r="3.195" transform="translate(2277.856 332.778)" style="fill:#d5d5d5"/>
        <circle data-name="Ellipse 58" cx="3.195" cy="3.195" r="3.195" transform="translate(2348.708 332.778)" style="fill:#d5d5d5"/>
        <circle data-name="Ellipse 59" cx="3.195" cy="3.195" r="3.195" transform="translate(2419.559 332.778)" style="fill:#d5d5d5"/>
        <circle data-name="Ellipse 60" cx="3.195" cy="3.195" r="3.195" transform="translate(2490.411 332.778)" style="fill:#d5d5d5"/>
        <circle data-name="Ellipse 61" cx="3.195" cy="3.195" r="3.195" transform="translate(2561.262 332.778)" style="fill:#d5d5d5"/>
        <circle data-name="Ellipse 62" cx="3.195" cy="3.195" r="3.195" transform="translate(2632.114 332.778)" style="fill:#d5d5d5"/>
        <circle data-name="Ellipse 63" cx="3.195" cy="3.195" r="3.195" transform="translate(2702.966 332.778)" style="fill:#d5d5d5"/>
        <circle data-name="Ellipse 64" cx="3.195" cy="3.195" r="3.195" transform="translate(2277.856 385.911)" style="fill:#d5d5d5"/>
        <circle data-name="Ellipse 65" cx="3.195" cy="3.195" r="3.195" transform="translate(2348.708 385.911)" style="fill:#d5d5d5"/>
        <circle data-name="Ellipse 66" cx="3.195" cy="3.195" r="3.195" transform="translate(2419.559 385.911)" style="fill:#d5d5d5"/>
        <circle data-name="Ellipse 67" cx="3.195" cy="3.195" r="3.195" transform="translate(2490.411 385.911)" style="fill:#d5d5d5"/>
        <circle data-name="Ellipse 68" cx="3.195" cy="3.195" r="3.195" transform="translate(2561.262 385.911)" style="fill:#d5d5d5"/>
        <circle data-name="Ellipse 69" cx="3.195" cy="3.195" r="3.195" transform="translate(2632.114 385.911)" style="fill:#d5d5d5"/>
        <circle data-name="Ellipse 70" cx="3.195" cy="3.195" r="3.195" transform="translate(2702.966 385.911)" style="fill:#d5d5d5"/>
        <circle data-name="Ellipse 71" cx="3.195" cy="3.195" r="3.195" transform="translate(2277.856 439.044)" style="fill:#d5d5d5"/>
        <circle data-name="Ellipse 72" cx="3.195" cy="3.195" r="3.195" transform="translate(2348.708 439.044)" style="fill:#d5d5d5"/>
        <circle data-name="Ellipse 73" cx="3.195" cy="3.195" r="3.195" transform="translate(2419.559 439.044)" style="fill:#d5d5d5"/>
        <circle data-name="Ellipse 74" cx="3.195" cy="3.195" r="3.195" transform="translate(2490.411 439.044)" style="fill:#d5d5d5"/>
        <circle data-name="Ellipse 75" cx="3.195" cy="3.195" r="3.195" transform="translate(2561.262 439.044)" style="fill:#d5d5d5"/>
        <circle data-name="Ellipse 76" cx="3.195" cy="3.195" r="3.195" transform="translate(2632.114 439.044)" style="fill:#d5d5d5"/>
        <circle data-name="Ellipse 77" cx="3.195" cy="3.195" r="3.195" transform="translate(2702.966 439.044)" style="fill:#d5d5d5"/>
    </g>
</svg>
