<svg xmlns="http://www.w3.org/2000/svg" width="15.31" height="12.303" viewBox="0 0 15.31 12.303">
    <path data-name="Path 5" d="M15.31 1.572a1.48 1.48 0 0 1-1.5 0 1.89 1.89 0 0 0 .885-1.367 6.977 6.977 0 0 1-1.982.752A2.989 2.989 0 0 0 10.457 0a3.063 3.063 0 0 0-3.075 3.076 2.107 2.107 0 0 0 .068.683A9.027 9.027 0 0 1 1.025.547a4.12 4.12 0 0 0-.41 1.572 3.111 3.111 0 0 0 1.367 2.6 2.871 2.871 0 0 1-1.435-.41v.068a3.22 3.22 0 0 0 2.46 3.073 3.4 3.4 0 0 1-1.435.068 3.242 3.242 0 0 0 2.871 2.188A6.212 6.212 0 0 1 0 10.936 8.712 8.712 0 0 0 4.784 12.3 8.726 8.726 0 0 0 13.6 3.486v-.41a7.3 7.3 0 0 0 1.71-1.504z" style="fill:#808082"/>
</svg>
