<svg xmlns="http://www.w3.org/2000/svg" width="36.892" height="36.491" viewBox="0 0 36.892 36.491">
    <g data-name="Group 139">
        <path data-name="Path 102" d="M825.22 868.5h3.172v26.115h-9.516c-3.172 0-5.551 1.632-5.551 4.9h-4.758c0-3.264-2.379-4.9-5.551-4.9H793.5V868.5h3.172" transform="translate(-792.5 -864.02)" style="stroke:#6c5dff;stroke-linecap:round;stroke-linejoin:round;stroke-width:2px;fill:#6c5dff"/>
        <path data-name="Path 101" d="M811.189 899.562c0-3.48 1.712-5.22 5.193-5.22h10.441V866.5h-10.441q-5.221 0-5.22 5.22 0-5.22-5.22-5.22H795.5v27.842h10.441c3.48 0 5.248 1.74 5.248 5.22z" transform="translate(-792.715 -865.5)" style="fill:#fff;stroke:#6c5dff;stroke-linecap:round;stroke-linejoin:round;stroke-width:2px"/>
        <path data-name="Line 61" transform="translate(18.446 6.22)" style="fill:none;stroke:#6c5dff;stroke-linecap:round;stroke-linejoin:round;stroke-width:2px" d="M0 0v26.972"/>
    </g>
</svg>
