<svg data-name="Group 71" xmlns="http://www.w3.org/2000/svg" width="15" height="15" viewBox="0 0 15 15">
    <path data-name="Path 53" d="M105 2320.5h7.5a6.611 6.611 0 0 0-.652-2.646c-.487-.972-2.609-1.63-5.217-2.608v-1.957a2.445 2.445 0 0 0 .978-1.957c.326 0 .652-1.3 0-1.63 0-.194.873-1.827.652-2.935-.326-1.63-4.891-1.63-5.217-.326-1.957 0-.652 3-.652 3.261-.652.326-.326 1.63 0 1.63a2.445 2.445 0 0 0 .978 1.957v1.957c-2.609.978-4.732 1.636-5.217 2.608a6.611 6.611 0 0 0-.652 2.646z" transform="translate(-97.5 -2305.5)" style="fill:#27343e"/>
</svg>
