<svg xmlns="http://www.w3.org/2000/svg" width="22" height="22.006" viewBox="0 0 22 22.006">
    <g data-name="Profile_icon 01">
        <path data-name="Path 53" d="M107.5 2325.5h10a8.816 8.816 0 0 0-.87-3.529c-.649-1.3-3.478-2.174-6.957-3.479v-2.61a3.262 3.262 0 0 0 1.3-2.609c.435 0 .87-1.74 0-2.175 0-.259 1.164-2.436.87-3.914-.435-2.174-6.522-2.174-6.957-.435-2.609 0-.87 4-.87 4.349-.87.435-.435 2.175 0 2.175a3.262 3.262 0 0 0 1.3 2.609v2.61c-3.478 1.3-6.309 2.182-6.957 3.479a8.817 8.817 0 0 0-.87 3.529z" style="fill:none;stroke:#9ea8ba;stroke-linejoin:round;stroke-width:2px" transform="translate(-96.5 -2304.498)"/>
    </g>
</svg>
