<svg xmlns="http://www.w3.org/2000/svg" width="16" height="14.02" viewBox="0 0 16 14.02">
    <g data-name="Group 24">
        <path data-name="Path 6" d="m0 3.812.628.838s1.327-1.05 1.816-.559c.419.559 2.164 6.912 2.723 8.1.489 1.047 1.885 2.374 3.351 1.4 1.536-.977 6.493-5.236 7.4-10.333.908-5.027-6-3.98-6.772.419 1.815-1.117 2.793.419 1.885 2.234-.908 1.741-1.815 2.858-2.231 2.858s-.771-1.187-1.33-3.212C6.982 3.533 6.982-.307 4.817.112 2.723.53 0 3.812 0 3.812z" transform="translate(0 .093)" style="fill:#808082"/>
    </g>
</svg>
